<?xml version="1.0" encoding="UTF-8" standalone="no"?>
<svg
   xmlns="http://www.w3.org/2000/svg"
   version="1.1"
   viewBox="0 0 128 128">
  <g>
    <rect y="0" x="0" height="128" width="128" style="fill:#4c7e3a" />
    <g style="fill:#fff">
      <path d="M 91.34375,43.84375 79.15625,31.65625 C 77.710937,30.210937 74.820312,29 72.75,29 l -35,0 C 35.679687,29 34,30.679687 34,32.75 l 0,62.5 c 0,2.070312 1.679687,3.75 3.75,3.75 l 52.5,0 C 92.320312,99 94,97.320312 94,95.25 l 0,-45 c 0,-2.070313 -1.210938,-4.960938 -2.65625,-6.40625 z M 74,34.3125 c 0.664062,0.234375 1.328125,0.585938 1.601562,0.859375 L 87.828125,47.398437 C 88.101562,47.671875 88.453125,48.335938 88.6875,49 L 74,49 74,34.3125 Z M 89,94 39,94 39,34 69,34 69,50.25 C 69,52.320312 70.679687,54 72.75,54 L 89,54 89,94 Z" />
    </g>
    <g style="fill:#fff">
      <path d="m 50.652832,90.475586 0,-21.875 -7.587891,0 0,-3.076172 19.294434,0 0,3.076172 -7.60498,0 0,21.875 -4.101563,0 z" />
      <path d="m 71.62207,90.475586 -8.459472,-24.951172 4.443359,0 q 0.683594,2.119141 2.050781,6.306152 1.367188,4.187012 2.426758,7.502442 1.05957,3.315429 1.999512,6.357422 0.324707,-1.025391 6.49414,-20.166016 l 4.357911,0 -8.732911,24.951172 -4.580078,0 z" />
    </g>
  </g>
</svg>
