<?xml version="1.0" encoding="UTF-8" standalone="no"?>
<svg xmlns="http://www.w3.org/2000/svg" viewBox="0 0 128 128" version="1.1">
  <g>
    <rect style="fill:#4c7e3a" width="128" height="128" x="0" y="0" />
    <g style="fill:#fff">
      <path d="M 91.34375,43.84375 79.15625,31.65625 C 77.710937,30.210937 74.820312,29 72.75,29 l -35,0 C 35.679687,29 34,30.679687 34,32.75 l 0,62.5 c 0,2.070312 1.679687,3.75 3.75,3.75 l 52.5,0 C 92.320312,99 94,97.320312 94,95.25 l 0,-45 c 0,-2.070313 -1.210938,-4.960938 -2.65625,-6.40625 z M 74,34.3125 c 0.664062,0.234375 1.328125,0.585938 1.601562,0.859375 L 87.828125,47.398437 C 88.101562,47.671875 88.453125,48.335938 88.6875,49 L 74,49 74,34.3125 Z M 89,94 39,94 39,34 69,34 69,50.25 C 69,52.320312 70.679687,54 72.75,54 L 89,54 89,94 Z" />
      <path d="m 50.652832,90.475586 0,-21.875 -7.587891,0 0,-3.076172 19.294434,0 0,3.076172 -7.60498,0 0,21.875 -4.101563,0 z" />
      <path d="m 71.62207,90.475586 -8.459472,-24.951172 4.443359,0 q 0.683594,2.119141 2.050781,6.306152 1.367188,4.187012 2.426758,7.502442 1.05957,3.315429 1.999512,6.357422 0.324707,-1.025391 6.49414,-20.166016 l 4.357911,0 -8.732911,24.951172 -4.580078,0 z" />
    </g>
  </g>
  <g style="fill:#ffffff;stroke:#4c7e3a;stroke-width:3;stroke-linecap:butt;stroke-linejoin:miter;stroke-miterlimit:4;">
    <path d="M 98.121069,96.470928 C 98.121069,100.01166 95.233234,102.89949 91.692498,102.89949 88.151761,102.89949 85.263926,100.01166 85.263926,96.470928 85.263926,92.930191 88.151761,90.042357 91.692498,90.042357 95.233234,90.042357 98.121069,92.930191 98.121069,96.470928 Z M 110.97821,93.733763 C 110.97821,93.306866 110.67687,92.90508 110.24998,92.829745 L 105.65455,92.12662 C 105.40344,91.297937 105.05187,90.469254 104.62498,89.665682 105.47877,88.485437 106.4079,87.380526 107.26169,86.225392 107.38725,86.049611 107.46259,85.87383 107.46259,85.647825 107.46259,85.446932 107.41239,85.24604 107.28681,85.09537 106.23212,83.613785 104.47431,82.056866 103.14339,80.826397 102.96761,80.675727 102.74161,80.575281 102.5156,80.575281 102.2896,80.575281 102.06359,80.650611 101.91292,80.801285 L 98.347074,83.488227 C 97.618837,83.111553 96.865489,82.810214 96.087029,82.559098 L 95.383904,77.938562 C 95.333684,77.511665 94.931895,77.185214 94.479886,77.185214 L 88.905109,77.185214 C 88.453101,77.185214 88.101538,77.486553 88.001092,77.888339 87.599306,79.395035 87.448636,81.02729 87.272855,82.559098 86.494395,82.810214 85.715935,83.136665 84.987699,83.513339 L 81.522297,80.826397 C 81.321404,80.675727 81.0954,80.575281 80.869395,80.575281 80.015601,80.575281 76.625534,84.241575 76.022855,85.070258 75.897297,85.24604 75.796851,85.421821 75.796851,85.647825 75.796851,85.87383 75.897297,86.074723 76.047967,86.250504 76.977096,87.380526 77.881114,88.510549 78.734909,89.715906 78.333123,90.469254 78.006672,91.222602 77.755556,92.026174 L 73.084797,92.729299 C 72.708123,92.804629 72.406784,93.256642 72.406784,93.633316 L 72.406784,99.208093 C 72.406784,99.634991 72.708123,100.03677 73.13502,100.11211 L 77.730444,100.79012 C 77.98156,101.64391 78.333123,102.4726 78.76002,103.27617 77.906226,104.45641 76.977096,105.56132 76.123301,106.71646 75.997743,106.89224 75.922409,107.06802 75.922409,107.29402 75.922409,107.49492 75.972629,107.69581 76.09819,107.87159 77.152877,109.32806 78.91069,110.88498 80.241605,112.09034 80.417386,112.26612 80.643391,112.36657 80.869395,112.36657 81.0954,112.36657 81.321404,112.29127 81.497185,112.14056 L 85.037922,109.45362 C 85.766159,109.8303 86.519507,110.13164 87.297967,110.38275 L 88.001092,115.00329 C 88.051312,115.43019 88.453101,115.75664 88.905109,115.75664 L 94.479886,115.75664 C 94.931895,115.75664 95.283458,115.4553 95.383904,115.05351 95.78569,113.54681 95.936359,111.91456 96.112141,110.38275 96.890601,110.13164 97.66906,109.80519 98.397297,109.42851 L 101.8627,112.14056 C 102.06359,112.26612 102.2896,112.36657 102.5156,112.36657 103.3694,112.36657 106.75946,108.67516 107.36214,107.87159 107.51281,107.69581 107.58815,107.52003 107.58815,107.29402 107.58815,107.06802 107.4877,106.84202 107.33703,106.66623 106.4079,105.53621 105.50388,104.4313 104.65009,103.20083 105.05187,102.4726 105.35321,101.71925 105.62944,100.91568 L 110.27509,100.21255 C 110.67687,100.13722 110.97821,99.685214 110.97821,99.30854 L 110.97821,93.733763 Z" />
  </g>
</svg>
